<mxfile host="Electron" modified="2023-05-03T04:17:27.969Z" agent="Mozilla/5.0 (Windows NT 10.0; Win64; x64) AppleWebKit/537.36 (KHTML, like Gecko) draw.io/21.1.2 Chrome/106.0.5249.199 Electron/21.4.3 Safari/537.36" etag="CtRdO-CFIobvySBHWQWr" version="21.1.2" type="device">
  <diagram name="Page-1" id="E351yCYVx-Ox02pfOsom">
    <mxGraphModel dx="827" dy="399" grid="1" gridSize="10" guides="1" tooltips="1" connect="1" arrows="1" fold="1" page="1" pageScale="1" pageWidth="850" pageHeight="1100" math="0" shadow="0">
      <root>
        <mxCell id="0" />
        <mxCell id="1" parent="0" />
        <mxCell id="Tv_gbkyfAN7U5kMX3m6G-2" value=":admin" style="shape=umlLifeline;perimeter=lifelinePerimeter;whiteSpace=wrap;html=1;container=1;dropTarget=0;collapsible=0;recursiveResize=0;outlineConnect=0;portConstraint=eastwest;newEdgeStyle={&quot;edgeStyle&quot;:&quot;elbowEdgeStyle&quot;,&quot;elbow&quot;:&quot;vertical&quot;,&quot;curved&quot;:0,&quot;rounded&quot;:0};" vertex="1" parent="1">
          <mxGeometry x="600" y="95" width="100" height="300" as="geometry" />
        </mxCell>
        <mxCell id="Tv_gbkyfAN7U5kMX3m6G-35" value="" style="html=1;points=[];perimeter=orthogonalPerimeter;outlineConnect=0;targetShapes=umlLifeline;portConstraint=eastwest;newEdgeStyle={&quot;edgeStyle&quot;:&quot;elbowEdgeStyle&quot;,&quot;elbow&quot;:&quot;vertical&quot;,&quot;curved&quot;:0,&quot;rounded&quot;:0};" vertex="1" parent="Tv_gbkyfAN7U5kMX3m6G-2">
          <mxGeometry x="45" y="225" width="10" height="40" as="geometry" />
        </mxCell>
        <mxCell id="Tv_gbkyfAN7U5kMX3m6G-3" value="" style="shape=umlLifeline;perimeter=lifelinePerimeter;whiteSpace=wrap;html=1;container=1;dropTarget=0;collapsible=0;recursiveResize=0;outlineConnect=0;portConstraint=eastwest;newEdgeStyle={&quot;edgeStyle&quot;:&quot;elbowEdgeStyle&quot;,&quot;elbow&quot;:&quot;vertical&quot;,&quot;curved&quot;:0,&quot;rounded&quot;:0};participant=umlActor;" vertex="1" parent="1">
          <mxGeometry x="110" y="40" width="20" height="360" as="geometry" />
        </mxCell>
        <mxCell id="Tv_gbkyfAN7U5kMX3m6G-4" value="user" style="text;html=1;align=center;verticalAlign=middle;resizable=0;points=[];autosize=1;strokeColor=none;fillColor=none;" vertex="1" parent="1">
          <mxGeometry x="55" y="35" width="50" height="30" as="geometry" />
        </mxCell>
        <mxCell id="Tv_gbkyfAN7U5kMX3m6G-5" value=":Website" style="shape=umlLifeline;perimeter=lifelinePerimeter;whiteSpace=wrap;html=1;container=1;dropTarget=0;collapsible=0;recursiveResize=0;outlineConnect=0;portConstraint=eastwest;newEdgeStyle={&quot;edgeStyle&quot;:&quot;elbowEdgeStyle&quot;,&quot;elbow&quot;:&quot;vertical&quot;,&quot;curved&quot;:0,&quot;rounded&quot;:0};" vertex="1" parent="1">
          <mxGeometry x="180" y="40" width="100" height="360" as="geometry" />
        </mxCell>
        <mxCell id="Tv_gbkyfAN7U5kMX3m6G-8" value="" style="html=1;points=[];perimeter=orthogonalPerimeter;outlineConnect=0;targetShapes=umlLifeline;portConstraint=eastwest;newEdgeStyle={&quot;edgeStyle&quot;:&quot;elbowEdgeStyle&quot;,&quot;elbow&quot;:&quot;vertical&quot;,&quot;curved&quot;:0,&quot;rounded&quot;:0};" vertex="1" parent="Tv_gbkyfAN7U5kMX3m6G-5">
          <mxGeometry x="45" y="60" width="10" height="50" as="geometry" />
        </mxCell>
        <mxCell id="Tv_gbkyfAN7U5kMX3m6G-6" value=":API" style="shape=umlLifeline;perimeter=lifelinePerimeter;whiteSpace=wrap;html=1;container=1;dropTarget=0;collapsible=0;recursiveResize=0;outlineConnect=0;portConstraint=eastwest;newEdgeStyle={&quot;edgeStyle&quot;:&quot;elbowEdgeStyle&quot;,&quot;elbow&quot;:&quot;vertical&quot;,&quot;curved&quot;:0,&quot;rounded&quot;:0};" vertex="1" parent="1">
          <mxGeometry x="320" y="40" width="100" height="360" as="geometry" />
        </mxCell>
        <mxCell id="Tv_gbkyfAN7U5kMX3m6G-7" value=":ML model" style="shape=umlLifeline;perimeter=lifelinePerimeter;whiteSpace=wrap;html=1;container=1;dropTarget=0;collapsible=0;recursiveResize=0;outlineConnect=0;portConstraint=eastwest;newEdgeStyle={&quot;edgeStyle&quot;:&quot;elbowEdgeStyle&quot;,&quot;elbow&quot;:&quot;vertical&quot;,&quot;curved&quot;:0,&quot;rounded&quot;:0};" vertex="1" parent="1">
          <mxGeometry x="460" y="40" width="100" height="360" as="geometry" />
        </mxCell>
        <mxCell id="Tv_gbkyfAN7U5kMX3m6G-12" value="" style="endArrow=classic;html=1;rounded=0;entryX=0.5;entryY=0.4;entryDx=0;entryDy=0;entryPerimeter=0;" edge="1" parent="1" source="Tv_gbkyfAN7U5kMX3m6G-3" target="Tv_gbkyfAN7U5kMX3m6G-8">
          <mxGeometry width="50" height="50" relative="1" as="geometry">
            <mxPoint x="170" y="170" as="sourcePoint" />
            <mxPoint x="220" y="120" as="targetPoint" />
          </mxGeometry>
        </mxCell>
        <mxCell id="Tv_gbkyfAN7U5kMX3m6G-13" value="" style="endArrow=classic;html=1;rounded=0;" edge="1" parent="1" source="Tv_gbkyfAN7U5kMX3m6G-5" target="Tv_gbkyfAN7U5kMX3m6G-3">
          <mxGeometry width="50" height="50" relative="1" as="geometry">
            <mxPoint x="160" y="180" as="sourcePoint" />
            <mxPoint x="210" y="130" as="targetPoint" />
            <Array as="points">
              <mxPoint x="190" y="130" />
            </Array>
          </mxGeometry>
        </mxCell>
        <mxCell id="Tv_gbkyfAN7U5kMX3m6G-14" value="register()" style="text;html=1;align=center;verticalAlign=middle;resizable=0;points=[];autosize=1;strokeColor=none;fillColor=none;" vertex="1" parent="1">
          <mxGeometry x="145" y="95" width="70" height="30" as="geometry" />
        </mxCell>
        <mxCell id="Tv_gbkyfAN7U5kMX3m6G-15" value="return logged" style="text;html=1;align=center;verticalAlign=middle;resizable=0;points=[];autosize=1;strokeColor=none;fillColor=none;" vertex="1" parent="1">
          <mxGeometry x="125" y="125" width="90" height="30" as="geometry" />
        </mxCell>
        <mxCell id="Tv_gbkyfAN7U5kMX3m6G-16" value="loop" style="shape=umlFrame;whiteSpace=wrap;html=1;pointerEvents=0;" vertex="1" parent="1">
          <mxGeometry x="290" y="170" width="270" height="130" as="geometry" />
        </mxCell>
        <mxCell id="Tv_gbkyfAN7U5kMX3m6G-17" value="" style="shape=umlDestroy;whiteSpace=wrap;html=1;strokeWidth=3;targetShapes=umlLifeline;" vertex="1" parent="1">
          <mxGeometry x="105" y="400" width="30" height="30" as="geometry" />
        </mxCell>
        <mxCell id="Tv_gbkyfAN7U5kMX3m6G-18" value="" style="shape=umlDestroy;whiteSpace=wrap;html=1;strokeWidth=3;targetShapes=umlLifeline;" vertex="1" parent="1">
          <mxGeometry x="215" y="400" width="30" height="30" as="geometry" />
        </mxCell>
        <mxCell id="Tv_gbkyfAN7U5kMX3m6G-19" value="" style="shape=umlDestroy;whiteSpace=wrap;html=1;strokeWidth=3;targetShapes=umlLifeline;" vertex="1" parent="1">
          <mxGeometry x="355" y="400" width="30" height="30" as="geometry" />
        </mxCell>
        <mxCell id="Tv_gbkyfAN7U5kMX3m6G-20" value="" style="shape=umlDestroy;whiteSpace=wrap;html=1;strokeWidth=3;targetShapes=umlLifeline;" vertex="1" parent="1">
          <mxGeometry x="495" y="400" width="35" height="30" as="geometry" />
        </mxCell>
        <mxCell id="Tv_gbkyfAN7U5kMX3m6G-21" value="" style="shape=umlDestroy;whiteSpace=wrap;html=1;strokeWidth=3;targetShapes=umlLifeline;" vertex="1" parent="1">
          <mxGeometry x="635" y="400" width="30" height="30" as="geometry" />
        </mxCell>
        <mxCell id="Tv_gbkyfAN7U5kMX3m6G-22" value="" style="html=1;points=[];perimeter=orthogonalPerimeter;outlineConnect=0;targetShapes=umlLifeline;portConstraint=eastwest;newEdgeStyle={&quot;edgeStyle&quot;:&quot;elbowEdgeStyle&quot;,&quot;elbow&quot;:&quot;vertical&quot;,&quot;curved&quot;:0,&quot;rounded&quot;:0};" vertex="1" parent="1">
          <mxGeometry x="365" y="197.5" width="10" height="45" as="geometry" />
        </mxCell>
        <mxCell id="Tv_gbkyfAN7U5kMX3m6G-23" value="" style="html=1;points=[];perimeter=orthogonalPerimeter;outlineConnect=0;targetShapes=umlLifeline;portConstraint=eastwest;newEdgeStyle={&quot;edgeStyle&quot;:&quot;elbowEdgeStyle&quot;,&quot;elbow&quot;:&quot;vertical&quot;,&quot;curved&quot;:0,&quot;rounded&quot;:0};" vertex="1" parent="1">
          <mxGeometry x="505" y="242.5" width="10" height="40" as="geometry" />
        </mxCell>
        <mxCell id="Tv_gbkyfAN7U5kMX3m6G-27" value="" style="endArrow=classic;html=1;rounded=0;" edge="1" parent="1" source="Tv_gbkyfAN7U5kMX3m6G-3" target="Tv_gbkyfAN7U5kMX3m6G-22">
          <mxGeometry width="50" height="50" relative="1" as="geometry">
            <mxPoint x="400" y="240" as="sourcePoint" />
            <mxPoint x="370" y="190" as="targetPoint" />
            <Array as="points">
              <mxPoint x="190" y="220" />
              <mxPoint x="340" y="220" />
            </Array>
          </mxGeometry>
        </mxCell>
        <mxCell id="Tv_gbkyfAN7U5kMX3m6G-28" value="" style="endArrow=classic;html=1;rounded=0;" edge="1" parent="1" source="Tv_gbkyfAN7U5kMX3m6G-22" target="Tv_gbkyfAN7U5kMX3m6G-3">
          <mxGeometry width="50" height="50" relative="1" as="geometry">
            <mxPoint x="400" y="240" as="sourcePoint" />
            <mxPoint x="450" y="190" as="targetPoint" />
            <Array as="points">
              <mxPoint x="300" y="230" />
            </Array>
          </mxGeometry>
        </mxCell>
        <mxCell id="Tv_gbkyfAN7U5kMX3m6G-29" value="getSchedule()" style="text;html=1;align=center;verticalAlign=middle;resizable=0;points=[];autosize=1;strokeColor=none;fillColor=none;" vertex="1" parent="1">
          <mxGeometry x="140" y="195" width="100" height="30" as="geometry" />
        </mxCell>
        <mxCell id="Tv_gbkyfAN7U5kMX3m6G-30" value="return schedule" style="text;html=1;align=center;verticalAlign=middle;resizable=0;points=[];autosize=1;strokeColor=none;fillColor=none;" vertex="1" parent="1">
          <mxGeometry x="135" y="225" width="110" height="30" as="geometry" />
        </mxCell>
        <mxCell id="Tv_gbkyfAN7U5kMX3m6G-31" value="" style="endArrow=classic;html=1;rounded=0;" edge="1" parent="1" target="Tv_gbkyfAN7U5kMX3m6G-23">
          <mxGeometry width="50" height="50" relative="1" as="geometry">
            <mxPoint x="120" y="262" as="sourcePoint" />
            <mxPoint x="365" y="262" as="targetPoint" />
            <Array as="points">
              <mxPoint x="190" y="262" />
              <mxPoint x="340" y="262" />
            </Array>
          </mxGeometry>
        </mxCell>
        <mxCell id="Tv_gbkyfAN7U5kMX3m6G-32" value="" style="endArrow=classic;html=1;rounded=0;" edge="1" parent="1" source="Tv_gbkyfAN7U5kMX3m6G-23">
          <mxGeometry width="50" height="50" relative="1" as="geometry">
            <mxPoint x="365" y="270" as="sourcePoint" />
            <mxPoint x="120" y="270" as="targetPoint" />
            <Array as="points">
              <mxPoint x="300" y="270" />
            </Array>
          </mxGeometry>
        </mxCell>
        <mxCell id="Tv_gbkyfAN7U5kMX3m6G-33" value="predict()" style="text;html=1;align=center;verticalAlign=middle;resizable=0;points=[];autosize=1;strokeColor=none;fillColor=none;" vertex="1" parent="1">
          <mxGeometry x="365" y="235" width="70" height="30" as="geometry" />
        </mxCell>
        <mxCell id="Tv_gbkyfAN7U5kMX3m6G-34" value="return prediction" style="text;html=1;align=center;verticalAlign=middle;resizable=0;points=[];autosize=1;strokeColor=none;fillColor=none;" vertex="1" parent="1">
          <mxGeometry x="365" y="265" width="110" height="30" as="geometry" />
        </mxCell>
        <mxCell id="Tv_gbkyfAN7U5kMX3m6G-37" value="" style="endArrow=classic;html=1;rounded=0;" edge="1" parent="1" source="Tv_gbkyfAN7U5kMX3m6G-3" target="Tv_gbkyfAN7U5kMX3m6G-2">
          <mxGeometry width="50" height="50" relative="1" as="geometry">
            <mxPoint x="130" y="330" as="sourcePoint" />
            <mxPoint x="375" y="330" as="targetPoint" />
            <Array as="points">
              <mxPoint x="200" y="340" />
              <mxPoint x="350" y="340" />
            </Array>
          </mxGeometry>
        </mxCell>
        <mxCell id="Tv_gbkyfAN7U5kMX3m6G-38" value="" style="endArrow=classic;html=1;rounded=0;" edge="1" parent="1" source="Tv_gbkyfAN7U5kMX3m6G-35">
          <mxGeometry width="50" height="50" relative="1" as="geometry">
            <mxPoint x="505" y="350" as="sourcePoint" />
            <mxPoint x="120" y="350" as="targetPoint" />
            <Array as="points">
              <mxPoint x="300" y="350" />
            </Array>
          </mxGeometry>
        </mxCell>
        <mxCell id="Tv_gbkyfAN7U5kMX3m6G-39" value="query()" style="text;html=1;align=center;verticalAlign=middle;resizable=0;points=[];autosize=1;strokeColor=none;fillColor=none;" vertex="1" parent="1">
          <mxGeometry x="375" y="315" width="60" height="30" as="geometry" />
        </mxCell>
        <mxCell id="Tv_gbkyfAN7U5kMX3m6G-41" value="return response" style="text;html=1;align=center;verticalAlign=middle;resizable=0;points=[];autosize=1;strokeColor=none;fillColor=none;" vertex="1" parent="1">
          <mxGeometry x="355" y="345" width="110" height="30" as="geometry" />
        </mxCell>
        <mxCell id="Tv_gbkyfAN7U5kMX3m6G-42" value="opt" style="shape=umlFrame;whiteSpace=wrap;html=1;pointerEvents=0;" vertex="1" parent="1">
          <mxGeometry x="290" y="310" width="240" height="80" as="geometry" />
        </mxCell>
      </root>
    </mxGraphModel>
  </diagram>
</mxfile>
